<svg width="10000" height="10000" viewBox="0 0 10000 10000" fill="none" xmlns="http://www.w3.org/2000/svg">
<g clip-path="url(#clip0_7_2)">
<rect width="10000" height="10000" rx="5000" fill="#001830"/>
<circle cx="5000" cy="5000" r="4000" fill="white"/>
<circle cx="5000" cy="4601" r="3451" fill="#001830"/>
<rect x="4620" y="966" width="760" height="238" fill="#001830"/>
<ellipse cx="4620" cy="1094.18" rx="64" ry="76.175" fill="white"/>
<ellipse cx="5380" cy="1094.18" rx="64" ry="76.175" fill="white"/>
<path d="M5721 2925C5721 3323.2 5398.2 3646 5000 3646C4601.8 3646 4279 3323.2 4279 2925C4279 2526.8 4601.8 2204 5000 2204C5398.2 2204 5721 2526.8 5721 2925Z" fill="white"/>
<circle cx="6329" cy="3701" r="325" fill="white"/>
<circle cx="3671" cy="3701" r="325" fill="white"/>
<path d="M2840.5 4060L2953.99 4433.48H3321.26L3024.13 4664.3L3137.63 5037.77L2840.5 4806.95L2543.37 5037.77L2656.87 4664.3L2359.74 4433.48H2727.01L2840.5 4060Z" fill="white"/>
<path d="M7159.5 4060L7272.99 4433.48H7640.26L7343.13 4664.3L7456.63 5037.77L7159.5 4806.95L6862.37 5037.77L6975.87 4664.3L6678.74 4433.48H7046.01L7159.5 4060Z" fill="white"/>
<path d="M5063.49 4385.56C5071.27 4379.18 5083.01 4382.13 5086.85 4391.43L5782.03 6070.94C5786.75 6082.33 5776.48 6094.23 5764.52 6091.23L3663.58 5564.05C3651.63 5561.05 3648.19 5545.71 3657.72 5537.9L5063.49 4385.56Z" fill="white"/>
<path d="M4232.51 5695.18L5200.5 5938.07L4942.03 6637.84C4637.82 7461.45 5515.58 8222.93 6288 7805.5V7805.5L6243.57 7834.39C5773.57 8140.09 5200.02 8243.01 4653.05 8119.8V8119.8L3711 7823.5L3099 7504.5L2587.71 7142.46C2459.44 7051.63 2338.5 6950.85 2226.01 6841.07L1354.5 5990.5L1765.5 5816L1843.86 6166.32C2131.08 7450.4 3988.6 7365.86 4158 6061V6061L4232.51 5695.18Z" fill="white"/>
</g>
<defs>
<clipPath id="clip0_7_2">
<rect width="10000" height="10000" rx="5000" fill="white"/>
</clipPath>
</defs>
</svg>
